<?xml version="1.0" encoding="UTF-8" standalone="no"?>
<!-- Generator: Adobe Illustrator 19.0.0, SVG Export Plug-In . SVG Version: 6.00 Build 0)  -->

<svg
   version="1.1"
   id="Capa_1"
   x="0px"
   y="0px"
   viewBox="0 0 66.999999 66.999999"
   xml:space="preserve"
   sodipodi:docname="TreeItemVisible.svg"
   width="67"
   height="67"
   inkscape:version="1.1.1 (3bf5ae0d25, 2021-09-20)"
   xmlns:inkscape="http://www.inkscape.org/namespaces/inkscape"
   xmlns:sodipodi="http://sodipodi.sourceforge.net/DTD/sodipodi-0.dtd"
   xmlns="http://www.w3.org/2000/svg"
   xmlns:svg="http://www.w3.org/2000/svg"><defs
   id="defs39" /><sodipodi:namedview
   id="namedview37"
   pagecolor="#000000"
   bordercolor="#666666"
   borderopacity="1.0"
   inkscape:pageshadow="2"
   inkscape:pageopacity="1"
   inkscape:pagecheckerboard="0"
   showgrid="true"
   width="67px"
   showguides="true"
   inkscape:guide-bbox="true"
   inkscape:zoom="13.498352"
   inkscape:cx="21.817478"
   inkscape:cy="40.597549"
   inkscape:window-width="2560"
   inkscape:window-height="1529"
   inkscape:window-x="-8"
   inkscape:window-y="-8"
   inkscape:window-maximized="1"
   inkscape:current-layer="Capa_1"><sodipodi:guide
     position="6.9999999,68.999999"
     orientation="1,0"
     id="guide856" /><inkscape:grid
     type="xygrid"
     id="grid887" /><sodipodi:guide
     position="59.999999,50.999999"
     orientation="1,0"
     id="guide889" /></sodipodi:namedview>
<g
   id="g4"
   transform="matrix(0.10233918,0,0,0.10233918,4.6173249,8.4857459)"
   style="opacity:0.7;fill:#ffffff">
	<path
   d="m 244.425,98.725 c -93.4,0 -178.1,51.1 -240.6,134.1 -5.1,6.8 -5.1,16.3 0,23.1 62.5,83.1 147.2,134.2 240.6,134.2 93.4,0 178.1,-51.1 240.6,-134.1 5.1,-6.8 5.1,-16.3 0,-23.1 -62.5,-83.1 -147.2,-134.2 -240.6,-134.2 z m 6.7,248.3 c -62,3.9 -113.2,-47.2 -109.3,-109.3 3.2,-51.2 44.7,-92.7 95.9,-95.9 62,-3.9 113.2,47.2 109.3,109.3 -3.3,51.1 -44.8,92.6 -95.9,95.9 z m -3.1,-47.4 c -33.4,2.1 -61,-25.4 -58.8,-58.8 1.7,-27.6 24.1,-49.9 51.7,-51.7 33.4,-2.1 61,25.4 58.8,58.8 -1.8,27.7 -24.2,50 -51.7,51.7 z"
   id="path2"
   style="fill:#ffffff" />
</g>
<g
   id="g6">
</g>
<g
   id="g8">
</g>
<g
   id="g10">
</g>
<g
   id="g12">
</g>
<g
   id="g14">
</g>
<g
   id="g16">
</g>
<g
   id="g18">
</g>
<g
   id="g20">
</g>
<g
   id="g22">
</g>
<g
   id="g24">
</g>
<g
   id="g26">
</g>
<g
   id="g28">
</g>
<g
   id="g30">
</g>
<g
   id="g32">
</g>
<g
   id="g34">
</g>
</svg>
