<?xml version="1.0" encoding="UTF-8" standalone="no"?>
<!-- Generator: Adobe Illustrator 19.0.0, SVG Export Plug-In . SVG Version: 6.00 Build 0)  -->

<svg
   version="1.1"
   id="Capa_1"
   x="0px"
   y="0px"
   viewBox="0 0 66.999999 66.999999"
   xml:space="preserve"
   sodipodi:docname="TreeItemInvisible.svg"
   width="67"
   height="67"
   inkscape:version="1.1.1 (3bf5ae0d25, 2021-09-20)"
   xmlns:inkscape="http://www.inkscape.org/namespaces/inkscape"
   xmlns:sodipodi="http://sodipodi.sourceforge.net/DTD/sodipodi-0.dtd"
   xmlns="http://www.w3.org/2000/svg"
   xmlns:svg="http://www.w3.org/2000/svg"><defs
   id="defs39" /><sodipodi:namedview
   id="namedview37"
   pagecolor="#000000"
   bordercolor="#666666"
   borderopacity="1.0"
   inkscape:pageshadow="2"
   inkscape:pageopacity="0"
   inkscape:pagecheckerboard="false"
   showgrid="true"
   width="67px"
   showguides="true"
   inkscape:guide-bbox="true"
   inkscape:zoom="11.313709"
   inkscape:cx="16.396038"
   inkscape:cy="57.452426"
   inkscape:window-width="2560"
   inkscape:window-height="1529"
   inkscape:window-x="-8"
   inkscape:window-y="-8"
   inkscape:window-maximized="1"
   inkscape:current-layer="Capa_1"
   inkscape:snap-bbox="true"
   inkscape:bbox-nodes="true"><sodipodi:guide
     position="6.9999999,68.999999"
     orientation="1,0"
     id="guide856" /><inkscape:grid
     type="xygrid"
     id="grid887" /><sodipodi:guide
     position="59.999999,50.999999"
     orientation="1,0"
     id="guide889" /></sodipodi:namedview>
<path
   d="m 38.402106,44.778722 -3.779543,0.755136 c -3.159446,0.435499 -6.369273,0.434424 -9.528391,-0.0032 L 21.315215,44.772872 C 18.29107,43.967651 15.420803,42.716468 12.810647,41.065632 L 9.7103524,38.846891 C 8.0694316,37.514361 6.5605367,36.043579 5.2023643,34.452769 3.5848813,32.563617 6.5879708,30.27422 8.2054541,32.163371 c 1.507497,1.770063 3.2279129,3.368795 5.1266229,4.764014 0.01514,0.01021 0.02898,0.02145 0.04372,0.03201 4.711412,3.458722 10.524368,5.311577 16.493414,5.257205 5.967585,0.05433 11.77919,-1.797654 16.489995,-5.254869 0.0126,-0.009 0.0245,-0.01858 0.03748,-0.02723 1.902412,-1.396935 3.626026,-2.998087 5.136045,-4.771128 1.61767,-1.887451 4.62076,0.401943 3.003089,2.289392 -4.337324,5.456216 -10.375716,8.743507 -16.133703,10.325965 z"
   id="path2-2"
   style="opacity:0.7;fill:#ffffff;stroke-width:0.234398"
   sodipodi:nodetypes="cccccccccccccccc" />
<g
   id="g6">
</g>
<g
   id="g8">
</g>
<g
   id="g10">
</g>
<g
   id="g12">
</g>
<g
   id="g14">
</g>
<g
   id="g16">
</g>
<g
   id="g18">
</g>
<g
   id="g20">
</g>
<g
   id="g22">
</g>
<g
   id="g24">
</g>
<g
   id="g26">
</g>
<g
   id="g28">
</g>
<g
   id="g30">
</g>
<g
   id="g32">
</g>
<g
   id="g34">
</g>
</svg>
